<svg xmlns="http://www.w3.org/2000/svg" fill="currentColor" viewBox="0 0 336 37">
  <path d="M269.48 21.52c0 9.045-5.819 14.505-15.578 14.505-4.612 0-8.042-1.203-10.609-3.42-2.224-1.874-3.253-3.75-4.282-6.143l-.165-.507 3.595-1.875.508.849c.686 1.356 1.373 2.559 2.402 3.75 1.88 2.052 4.802 3.078 8.563 3.078 7.369 0 11.474-3.586 11.474-10.413h-.012V.012h4.104zM78.764.177c3.595 0 4.624.177 6.682 1.368 3.076 1.71 4.791 5.802 4.791 8.88 0 3.242-1.538 6.65-3.94 8.36-1.537 1.026-3.595 1.545-4.967 2.052l8.73 14.505h-4.79l-8.564-14.34H62.5v14.34h-4.281V.177zm72.944 4.103h-25.171v10.755h13.697v4.092h-13.697v11.957h26.365v4.092h-30.303V.012h29.109zM184.412.177l12.668 15.707L209.583.012h5.311l-15.755 19.976v15.188h-4.105V19.988L178.936.012h5.311zM28.932 4.269H4.104v11.438H19.86v4.092H4.104v15.365H0V.177h28.932zM318.484 0l17.127 35.164h-4.625l-5.997-12.122H308.04l-5.997 12.122h-4.625L314.711 0zm-8.41 18.785h13.011L316.58 5.472zM62.488 16.733h15.07c3.772 0 5.145-.342 6.34-1.191 1.549-1.026 2.4-3.078 2.4-5.295h-.012c0-2.393-1.029-4.103-2.566-4.952-1.195-.684-2.224-1.026-6.162-1.026h-15.07z"/>
</svg>